<svg xmlns="http://www.w3.org/2000/svg" width="1218" height="546" viewBox="0 0 1218 546" fill="none">
  <rect width="1218" height="546" fill="#ffffff"/>
  <rect x="1" y="1" width="1216" height="544" stroke="#e4e4e7" stroke-width="2"/>
  <g transform="translate(112 101)">
    <path d="M0 0h230l102 102v243H0z" fill="#fafafa"/>
    <path d="M230 0v102h102" fill="#e4e4e7"/>
    <path d="M0 0h230l102 102v243H0z" stroke="#27272a" stroke-width="18" stroke-linejoin="round"/>
    <path d="M230 0v102h102" stroke="#27272a" stroke-width="18" stroke-linejoin="round"/>
    <path d="M152 102 38 216 38 278 91 331 153 331 261 223 261 168 223 130 170 130 64 236 64 277 94 307 137 307 236 208" stroke="#71717a" stroke-width="34" stroke-linecap="round" stroke-linejoin="round"/>
    <path d="M152 102 38 216 38 278 91 331 153 331 261 223 261 168 223 130 170 130 64 236 64 277 94 307 137 307 236 208" stroke="#d4d4d8" stroke-width="19" stroke-linecap="round" stroke-linejoin="round"/>
  </g>
  <g transform="translate(520 143)">
    <text x="0" y="72" fill="#18181b" font-family="Inter, ui-sans-serif, system-ui, -apple-system, BlinkMacSystemFont, 'Segoe UI', sans-serif" font-size="76" font-weight="760" letter-spacing="0">papercompany</text>
    <text x="2" y="126" fill="#52525b" font-family="Inter, ui-sans-serif, system-ui, -apple-system, BlinkMacSystemFont, 'Segoe UI', sans-serif" font-size="30" font-weight="520" letter-spacing="0">control plane for agent-run company operations</text>
    <g transform="translate(2 176)">
      <rect x="0" y="0" width="150" height="44" rx="8" fill="#f4f4f5" stroke="#d4d4d8"/>
      <text x="20" y="29" fill="#27272a" font-family="Inter, ui-sans-serif, system-ui, -apple-system, BlinkMacSystemFont, 'Segoe UI', sans-serif" font-size="17" font-weight="650">missions</text>
      <rect x="170" y="0" width="154" height="44" rx="8" fill="#f4f4f5" stroke="#d4d4d8"/>
      <text x="190" y="29" fill="#27272a" font-family="Inter, ui-sans-serif, system-ui, -apple-system, BlinkMacSystemFont, 'Segoe UI', sans-serif" font-size="17" font-weight="650">approvals</text>
      <rect x="344" y="0" width="146" height="44" rx="8" fill="#f4f4f5" stroke="#d4d4d8"/>
      <text x="364" y="29" fill="#27272a" font-family="Inter, ui-sans-serif, system-ui, -apple-system, BlinkMacSystemFont, 'Segoe UI', sans-serif" font-size="17" font-weight="650">budgets</text>
      <rect x="510" y="0" width="156" height="44" rx="8" fill="#f4f4f5" stroke="#d4d4d8"/>
      <text x="530" y="29" fill="#27272a" font-family="Inter, ui-sans-serif, system-ui, -apple-system, BlinkMacSystemFont, 'Segoe UI', sans-serif" font-size="17" font-weight="650">evidence</text>
    </g>
  </g>
</svg>
