<svg xmlns="http://www.w3.org/2000/svg" width="206" height="36" viewBox="0 0 206 36" fill="none">
  <path d="M4 3h18l10 10v20H4z" fill="#fafafa"/>
  <path d="M22 3v10h10" fill="#e4e4e7"/>
  <path d="M4 3h18l10 10v20H4z" stroke="#18181b" stroke-width="2" stroke-linejoin="round"/>
  <path d="M22 3v10h10" stroke="#18181b" stroke-width="2" stroke-linejoin="round"/>
  <path d="M16 13 5 24 5 29 9 33 14 33 25 22 25 17 22 14 17 14 7 24 7 29 10 32 14 32 24 22" stroke="#71717a" stroke-width="4" stroke-linecap="round" stroke-linejoin="round"/>
  <path d="M16 13 5 24 5 29 9 33 14 33 25 22 25 17 22 14 17 14 7 24 7 29 10 32 14 32 24 22" stroke="#d4d4d8" stroke-width="2" stroke-linecap="round" stroke-linejoin="round"/>
  <text x="43" y="25" font-family="system-ui, -apple-system, sans-serif" font-size="20" font-weight="650" fill="#18181b">papercompany</text>
</svg>
